<svg width="185" height="181" viewBox="0 0 185 181" fill="none" xmlns="http://www.w3.org/2000/svg">
<path fill-rule="evenodd" clip-rule="evenodd" d="M92 110.5C77.0892 110.5 65 98.1948 65 83.0174C65 67.9581 73.6164 50.3811 87.0624 44.1003C88.6078 43.3764 90.2934 43.0008 92 43V110.5Z" fill="#005138"/>
<path opacity="0.4" d="M92 66.6248V85.1873L114.322 62.865C112.392 58.7475 109.908 54.9101 106.958 51.6667L92 66.6248Z" fill="#005138"/>
<path opacity="0.6" d="M92 102.063L118.362 75.7012C117.595 71.2616 116.236 66.9448 114.322 62.8661L92 85.1884V102.063Z" fill="#005138"/>
<path opacity="0.7" d="M118.362 75.7004L92 102.063V110.5C106.911 110.5 119 98.1948 119 83.0174C119 80.6212 118.784 78.1642 118.362 75.7004Z" fill="#005138"/>
<path d="M48.7784 136.5H44.1378V123.409H48.8168C50.1335 123.409 51.267 123.671 52.2173 124.195C53.1676 124.715 53.8984 125.463 54.4098 126.439C54.9254 127.415 55.1832 128.582 55.1832 129.942C55.1832 131.305 54.9254 132.477 54.4098 133.457C53.8984 134.438 53.1634 135.19 52.2045 135.714C51.25 136.238 50.108 136.5 48.7784 136.5ZM46.9055 134.129H48.6634C49.4815 134.129 50.1697 133.984 50.728 133.694C51.2905 133.4 51.7124 132.946 51.9936 132.332C52.2791 131.715 52.4219 130.918 52.4219 129.942C52.4219 128.974 52.2791 128.184 51.9936 127.57C51.7124 126.957 51.2926 126.505 50.7344 126.215C50.1761 125.925 49.4879 125.781 48.6697 125.781H46.9055V134.129ZM59.9054 130.824V136.5H57.1824V123.409H59.8287V128.414H59.9437C60.1653 127.835 60.5233 127.381 61.0176 127.053C61.5119 126.72 62.1319 126.554 62.8777 126.554C63.5595 126.554 64.1539 126.703 64.661 127.001C65.1724 127.296 65.5687 127.72 65.85 128.273C66.1355 128.823 66.2761 129.482 66.2718 130.249V136.5H63.5488V130.734C63.5531 130.129 63.3997 129.658 63.0886 129.322C62.7818 128.985 62.3514 128.817 61.7974 128.817C61.4267 128.817 61.0985 128.896 60.813 129.053C60.5318 129.211 60.3102 129.441 60.1483 129.744C59.9906 130.042 59.9096 130.402 59.9054 130.824ZM71.2145 136.685C70.5881 136.685 70.0298 136.577 69.5398 136.359C69.0497 136.138 68.6619 135.812 68.3764 135.381C68.0952 134.947 67.9545 134.406 67.9545 133.758C67.9545 133.212 68.0547 132.754 68.255 132.384C68.4553 132.013 68.728 131.715 69.0732 131.489C69.4183 131.263 69.8104 131.092 70.2493 130.977C70.6925 130.862 71.157 130.781 71.6428 130.734C72.2138 130.675 72.674 130.619 73.0234 130.568C73.3729 130.513 73.6264 130.432 73.7841 130.325C73.9418 130.219 74.0206 130.061 74.0206 129.852V129.814C74.0206 129.409 73.8928 129.096 73.6371 128.874C73.3857 128.653 73.0277 128.542 72.5632 128.542C72.0732 128.542 71.6832 128.651 71.3935 128.868C71.1037 129.081 70.9119 129.349 70.8182 129.673L68.2997 129.469C68.4276 128.872 68.679 128.357 69.054 127.922C69.429 127.483 69.9126 127.146 70.505 126.912C71.1016 126.673 71.7919 126.554 72.576 126.554C73.1214 126.554 73.6435 126.618 74.142 126.746C74.6449 126.874 75.0902 127.072 75.478 127.34C75.87 127.609 76.179 127.954 76.4048 128.376C76.6307 128.793 76.7436 129.294 76.7436 129.878V136.5H74.1612V135.139H74.0845C73.9268 135.445 73.7159 135.716 73.4517 135.95C73.1875 136.18 72.87 136.362 72.4993 136.494C72.1286 136.622 71.7003 136.685 71.2145 136.685ZM71.9943 134.806C72.3949 134.806 72.7486 134.727 73.0554 134.57C73.3622 134.408 73.603 134.19 73.7777 133.918C73.9524 133.645 74.0398 133.336 74.0398 132.991V131.949C73.9545 132.004 73.8374 132.055 73.6882 132.102C73.5433 132.145 73.3793 132.185 73.196 132.224C73.0128 132.258 72.8295 132.29 72.6463 132.32C72.4631 132.345 72.2969 132.369 72.1477 132.39C71.8281 132.437 71.549 132.511 71.3104 132.614C71.0717 132.716 70.8864 132.854 70.7543 133.029C70.6222 133.2 70.5561 133.413 70.5561 133.668C70.5561 134.039 70.6903 134.323 70.9588 134.519C71.2315 134.71 71.5767 134.806 71.9943 134.806ZM81.5792 130.824V136.5H78.8562V126.682H81.4513V128.414H81.5664C81.7837 127.843 82.1481 127.391 82.6594 127.059C83.1708 126.722 83.7908 126.554 84.5195 126.554C85.2013 126.554 85.7958 126.703 86.3029 127.001C86.81 127.3 87.2042 127.726 87.4854 128.28C87.7667 128.83 87.9073 129.486 87.9073 130.249V136.5H85.1843V130.734C85.1886 130.134 85.0352 129.665 84.7241 129.328C84.413 128.987 83.9847 128.817 83.4393 128.817C83.0728 128.817 82.7489 128.896 82.4677 129.053C82.1907 129.211 81.9734 129.441 81.8157 129.744C81.6623 130.042 81.5835 130.402 81.5792 130.824ZM91.5556 123.409L94.7196 133.355H94.8411L98.0115 123.409H101.08L96.5669 136.5H93.0002L88.481 123.409H91.5556ZM104.314 136.685C103.688 136.685 103.129 136.577 102.639 136.359C102.149 136.138 101.762 135.812 101.476 135.381C101.195 134.947 101.054 134.406 101.054 133.758C101.054 133.212 101.154 132.754 101.355 132.384C101.555 132.013 101.828 131.715 102.173 131.489C102.518 131.263 102.91 131.092 103.349 130.977C103.792 130.862 104.257 130.781 104.742 130.734C105.313 130.675 105.774 130.619 106.123 130.568C106.472 130.513 106.726 130.432 106.884 130.325C107.041 130.219 107.12 130.061 107.12 129.852V129.814C107.12 129.409 106.992 129.096 106.737 128.874C106.485 128.653 106.127 128.542 105.663 128.542C105.173 128.542 104.783 128.651 104.493 128.868C104.203 129.081 104.012 129.349 103.918 129.673L101.399 129.469C101.527 128.872 101.779 128.357 102.154 127.922C102.529 127.483 103.012 127.146 103.605 126.912C104.201 126.673 104.892 126.554 105.676 126.554C106.221 126.554 106.743 126.618 107.242 126.746C107.744 126.874 108.19 127.072 108.578 127.34C108.97 127.609 109.279 127.954 109.504 128.376C109.73 128.793 109.843 129.294 109.843 129.878V136.5H107.261V135.139H107.184C107.026 135.445 106.816 135.716 106.551 135.95C106.287 136.18 105.97 136.362 105.599 136.494C105.228 136.622 104.8 136.685 104.314 136.685ZM105.094 134.806C105.494 134.806 105.848 134.727 106.155 134.57C106.462 134.408 106.703 134.19 106.877 133.918C107.052 133.645 107.139 133.336 107.139 132.991V131.949C107.054 132.004 106.937 132.055 106.788 132.102C106.643 132.145 106.479 132.185 106.296 132.224C106.112 132.258 105.929 132.29 105.746 132.32C105.563 132.345 105.396 132.369 105.247 132.39C104.928 132.437 104.649 132.511 104.41 132.614C104.171 132.716 103.986 132.854 103.854 133.029C103.722 133.2 103.656 133.413 103.656 133.668C103.656 134.039 103.79 134.323 104.058 134.519C104.331 134.71 104.676 134.806 105.094 134.806ZM114.679 130.824V136.5H111.956V126.682H114.551V128.414H114.666C114.883 127.843 115.248 127.391 115.759 127.059C116.27 126.722 116.89 126.554 117.619 126.554C118.301 126.554 118.895 126.703 119.403 127.001C119.91 127.3 120.304 127.726 120.585 128.28C120.866 128.83 121.007 129.486 121.007 130.249V136.5H118.284V130.734C118.288 130.134 118.135 129.665 117.824 129.328C117.513 128.987 117.084 128.817 116.539 128.817C116.172 128.817 115.849 128.896 115.567 129.053C115.29 129.211 115.073 129.441 114.915 129.744C114.762 130.042 114.683 130.402 114.679 130.824ZM128.375 126.682V128.727H122.463V126.682H128.375ZM123.805 124.33H126.528V133.483C126.528 133.734 126.566 133.93 126.643 134.071C126.72 134.207 126.826 134.303 126.963 134.359C127.103 134.414 127.265 134.442 127.449 134.442C127.576 134.442 127.704 134.431 127.832 134.41C127.96 134.384 128.058 134.365 128.126 134.352L128.554 136.379C128.418 136.421 128.226 136.47 127.979 136.526C127.732 136.585 127.431 136.622 127.078 136.634C126.422 136.66 125.846 136.573 125.352 136.372C124.862 136.172 124.48 135.861 124.208 135.439C123.935 135.017 123.801 134.484 123.805 133.841V124.33ZM130.149 136.5V126.682H132.789V128.395H132.891C133.07 127.786 133.371 127.325 133.793 127.014C134.214 126.699 134.7 126.541 135.25 126.541C135.386 126.541 135.533 126.55 135.691 126.567C135.849 126.584 135.987 126.607 136.107 126.637V129.053C135.979 129.015 135.802 128.981 135.576 128.951C135.35 128.921 135.143 128.906 134.956 128.906C134.555 128.906 134.197 128.994 133.882 129.168C133.571 129.339 133.324 129.577 133.141 129.884C132.962 130.191 132.872 130.545 132.872 130.945V136.5H130.149ZM137.514 136.5V126.682H140.237V136.5H137.514ZM138.882 125.416C138.477 125.416 138.13 125.282 137.84 125.014C137.555 124.741 137.412 124.415 137.412 124.036C137.412 123.661 137.555 123.339 137.84 123.07C138.13 122.798 138.477 122.661 138.882 122.661C139.287 122.661 139.632 122.798 139.918 123.07C140.208 123.339 140.352 123.661 140.352 124.036C140.352 124.415 140.208 124.741 139.918 125.014C139.632 125.282 139.287 125.416 138.882 125.416Z" fill="#053D00"/>
</svg>
